<?xml version="1.0" standalone="yes"?>
<svg xmlns="http://www.w3.org/2000/svg" width="97" height="97">
<path style="fill:#ffffff; stroke:none;" d="M0 0L0 42C2.1661 37.1849 2.84585 31.8447 5.27006 27C11.8205 13.9092 24.2626 3.17644 39 1C35.0414 -0.66111 30.2604 0 26 0L0 0z"/>
<path style="fill:#f2d091; stroke:none;" d="M11 78L15 69L20 70L20 34C20 28.1975 20.8159 22.9333 15 20C21.0124 18.2228 27.7611 19 34 19L67 19C71.6391 19 80.5958 17.2964 84.5664 20.0278C87.9128 22.3298 87.7119 29.3489 88 33C84.9656 30.3757 82.4695 26.9482 78.9992 24.8573C73.1196 21.3146 65.4356 21.8052 59 23L59 43C67.6239 42.2946 68.3298 38.1736 74 33C74 40.0434 76.1075 50.5491 71 56C70.2036 48.8544 65.7331 46.5551 59 46L59.0008 62C59.0174 64.4223 58.7346 67.5202 60.6034 69.3966C62.4807 71.2816 65.5753 70.9713 68 71L68 73C60.4068 73 52.4234 73.7674 45 72C47.2346 78.4363 42.5738 78.9698 37 78.9992C28.3339 79.0449 19.6663 79 11 79C27.1799 101.779 63.3553 102.156 82.7137 83.561C101.111 65.8896 102.421 33.8496 84.9066 15.0039C66.5944 -4.70014 32.1094 -5.77229 13.439 14.1705C-0.90655 29.4938 -7.36986 62.7784 11 78z"/>
<path style="fill:#ffffff; stroke:none;" d="M59 0C64.1598 2.80868 69.9196 4.31258 75 7.46759C85.3515 13.896 94.1728 25.8098 96 38C97.6611 34.0414 97 29.2604 97 25L97 0L59 0z"/>
<path style="fill:#4eb8b1; stroke:none;" d="M15 19L16 20L15 19z"/>
<path style="fill:#04adbf; stroke:none;" d="M16 19C21.0077 25.8445 21 31.7691 21 40C24.4309 37.419 28.0811 36.5872 32 35L32 39L34 39L34 35L37 35C37 28.7198 36.6289 24.092 42 20C34.8314 16.9919 23.761 19 16 19z"/>
<path style="fill:#7b8178; stroke:none;" d="M42 19L43 20L42 19z"/>
<path style="fill:#f25430; stroke:none;" d="M41 20C50.4833 28.8601 47.0196 44.8241 47 57C46.9941 60.6855 44.5279 69.3504 47.7431 71.9722C51.4864 75.0246 62.3361 73 67 73L67 71C54.7509 70.0739 58 54.8934 58 46C65.2094 46.0804 69.6494 48.5636 71 56L73 56L73 33C67.9406 39.0559 66.8539 42.9199 58 43C58 37.9593 56.6952 30.7835 58.6034 26.0586C60.0544 22.4659 63.5654 22.0266 67 22.0085C77.0904 21.9553 80.3786 28.3992 88 33C87.1382 28.3747 86.3701 23.6893 86 19C71.6558 19 54.9782 16.6721 41 20z"/>
<path style="fill:#a7705d; stroke:none;" d="M40 20L41 21L40 20z"/>
<path style="fill:#5dbaae; stroke:none;" d="M18 21L19 22L18 21z"/>
<path style="fill:#f2d091; stroke:none;" d="M39.4329 22.0718C36.1483 24.0685 37.0012 29.7882 37 33C36.9958 43.8563 35.3256 56.2448 37.1481 66.9414C37.6908 70.1259 40.7273 71.8833 43.6829 69.9676C47.0088 67.8118 45.893 62.3376 46.0394 59C46.4554 49.5134 47.4289 40.5207 46.2855 31C45.9007 27.7957 45.3744 18.4599 39.4329 22.0718z"/>
<path style="fill:#f2a771; stroke:none;" d="M86 21L86 24C86.6961 22.4463 86.6961 22.5537 86 21M60.6667 22.3333C60.2222 22.7778 61.2778 22.7222 61.3333 22.6667C61.7778 22.2222 60.7222 22.2778 60.6667 22.3333z"/>
<path style="fill:#f29664; stroke:none;" d="M71 22C72.2483 22.6848 72.5484 22.7488 74 23C72.7517 22.3152 72.4516 22.2512 71 22z"/>
<path style="fill:#5dbaae; stroke:none;" d="M37 23L38 24L37 23z"/>
<path style="fill:#f29e6a; stroke:none;" d="M58 24L58 43C60.0196 38.1871 60.0196 28.8129 58 24z"/>
<path style="fill:#f2af77; stroke:none;" d="M46 25L46 33C47.1614 30.2301 47.1614 27.7698 46 25z"/>
<path style="fill:#3fb5b4; stroke:none;" d="M20 26L20 36C21.3457 32.793 21.3457 29.207 20 26z"/>
<path style="fill:#f28e5d; stroke:none;" d="M81 26L82 27L81 26z"/>
<path style="fill:#f29664; stroke:none;" d="M82 27L83 28L82 27z"/>
<path style="fill:#f28e5d; stroke:none;" d="M83 28L84 29L83 28M87 28L87 31C87.6961 29.4463 87.6961 29.5537 87 28z"/>
<path style="fill:#f28657; stroke:none;" d="M73 33L73 41C74.1614 38.2301 74.1614 35.7699 73 33z"/>
<path style="fill:#0583f2; stroke:none;" d="M22 54L24 54L24 48C25.6076 49.4498 26.0643 50.0514 27 52C27.683 50.4939 27.8259 49.6852 28 48L31 48L31 53C32.5911 50.6856 32.8575 48.8099 33 46L37 48L37 35L34 35L34 39L32 39L32 35C29.2953 35.655 25.6287 35.9169 23.4336 37.7631C19.1152 41.3953 21.4017 49.2658 22 54z"/>
<path style="fill:#7bbea8; stroke:none;" d="M20 36L20 40C20.7102 38.2405 20.7102 37.7595 20 36z"/>
<path style="fill:#f29664; stroke:none;" d="M70 37L71 38L70 37M69 39L70 40L69 39z"/>
<path style="fill:#4787c0; stroke:none;" d="M20 40L20 49C21.2561 46.0059 21.2561 42.9941 20 40z"/>
<path style="fill:#f28e5d; stroke:none;" d="M67 41L68 42L67 41z"/>
<path style="fill:#f29e6a; stroke:none;" d="M73 41L73 54C74.5909 50.2087 74.5909 44.7913 73 41z"/>
<path style="fill:#f29664; stroke:none;" d="M63 42C64.2484 42.6848 64.5484 42.7488 66 43C64.7517 42.3152 64.4516 42.2512 63 42z"/>
<path style="fill:#2685d9; stroke:none;" d="M33 46L33 50C33.7102 48.2405 33.7102 47.7595 33 46z"/>
<path style="fill:#23468c; stroke:none;" d="M34 46C33.273 49.078 32.2953 50.8258 30 53L30 48C29.317 49.506 29.1741 50.3148 29 52C27.3334 50.4518 25.9787 49.099 24 48L24 54L22 54L22 50C19.8086 55.2224 21 62.3677 21 68C26.0696 66.4461 28.8185 68.0195 33 71C39.461 66.5839 38.6166 51.7651 34 46z"/>
<path style="fill:#f2af77; stroke:none;" d="M58 46L58 67C60.153 61.8692 60.153 51.1308 58 46z"/>
<path style="fill:#f29664; stroke:none;" d="M63 46C64.2484 46.6848 64.5484 46.7488 66 47C64.7516 46.3152 64.4516 46.2512 63 46z"/>
<path style="fill:#2685d9; stroke:none;" d="M28 48L28 52C28.7102 50.2405 28.7102 49.7595 28 48M30 48L30 53C30.8299 50.9695 30.8299 50.0305 30 48z"/>
<path style="fill:#1f62b2; stroke:none;" d="M35.6667 48.3333C35.2222 48.7778 36.2778 48.7222 36.3333 48.6667C36.7778 48.2222 35.7222 48.2778 35.6667 48.3333z"/>
<path style="fill:#f29664; stroke:none;" d="M68 48L69 49L68 48z"/>
<path style="fill:#63718e; stroke:none;" d="M20.3333 49.6667C20.2778 49.7222 20.2222 50.7778 20.6667 50.3333C20.7222 50.2778 20.7778 49.2222 20.3333 49.6667z"/>
<path style="fill:#8a8b8e; stroke:none;" d="M20 51L20 70C22.4171 65.8195 21.8793 55.4786 20 51z"/>
<path style="fill:#ffffff; stroke:none;" d="M0 54L0 97L43 97C38.5768 95.0137 33.5347 94.5651 29 92.5602C19.3511 88.2941 10.9779 80.2063 5.90355 71C2.90895 65.567 2.45829 59.4741 0 54z"/>
<path style="fill:#f2bf84; stroke:none;" d="M46 54L46 63C47.2561 60.0059 47.2561 56.9941 46 54z"/>
<path style="fill:#ffffff; stroke:none;" d="M96 58C93.1106 77.5649 74.6231 94.3972 55 96C59.2151 97.7687 64.4645 97 69 97L97 97L97 71C97 66.7397 97.6611 61.9586 96 58z"/>
<path style="fill:#f29664; stroke:none;" d="M46 63L46 66C46.6961 64.4463 46.6961 64.5537 46 63z"/>
<path style="fill:#dee6e2; stroke:none;" d="M15 66L15 68L17 68L17 66L15 66z"/>
<path style="fill:#c5d3db; stroke:none;" d="M23 68L26 68L25 66C23.3648 66.5451 23.5451 66.3648 23 68z"/>
<path style="fill:#6f89b3; stroke:none;" d="M22 67L23 68L22 67z"/>
<path style="fill:#4565a0; stroke:none;" d="M26 67C27.2228 68.1952 27.42 68.3164 29 69C28.0198 67.2167 28.0924 67.4057 26 67z"/>
<path style="fill:#b0c2d4; stroke:none;" d="M33 67L33 69L35 69C34.4549 67.3648 34.6352 67.5451 33 67z"/>
<path style="fill:#ead8b0; stroke:none;" d="M43 67L43 69L45 69L45 67L43 67z"/>
<path style="fill:#d9ebf4; stroke:none;" d="M11 78L16 78C16.0109 75.9487 16.6292 75.0355 15 74C20.2762 72.4404 30.5767 70.3789 35.8117 72.439C40.0404 74.1031 41.009 77.6159 46 78C46 74.1703 45.7073 74.1658 43 72L44 71C33.3826 70.6309 14.9957 63.0996 11 78z"/>
<path style="fill:#e7dcbc; stroke:none;" d="M15 72L19 70C16.5878 68.6452 15.5676 69.3511 15 72z"/>
<path style="fill:#627fb0; stroke:none;" d="M34 71C36.0924 70.5943 36.0198 70.7833 37 69C35.42 69.6836 35.2228 69.8048 34 71z"/>
<path style="fill:#ef6749; stroke:none;" d="M45 69L44 73C45.1456 71.3595 45.393 70.924 45 69z"/>
<path style="fill:#fdfefe; stroke:none;" d="M15 73C15.5977 74.1954 15.4661 73.9774 17 75C15.3648 75.5451 15.5451 75.3648 15 77C23.0031 79.3656 32.6803 78 41 78C36.7131 67.5143 23.8902 72.999 15 73z"/>
<path style="fill:#dae2e8; stroke:none;" d="M45 71L46 72L45 71z"/>
<path style="fill:#e98d7a; stroke:none;" d="M46.3333 71.6667C46.2778 71.7222 46.2222 72.7778 46.6667 72.3333C46.7222 72.2778 46.7778 71.2222 46.3333 71.6667z"/>
<path style="fill:#f28e5d; stroke:none;" d="M67.3333 71.6667C67.2778 71.7222 67.2222 72.7778 67.6667 72.3333C67.7222 72.2778 67.7778 71.2222 67.3333 71.6667z"/>
<path style="fill:#e2b3ab; stroke:none;" d="M43 72L44 73L43 72z"/>
<path style="fill:#e5dec3; stroke:none;" d="M46 74L46 78C46.7102 76.2405 46.7102 75.7595 46 74z"/>
<path style="fill:#f5dcac; stroke:none;" d="M11 78C14.6987 79.552 19.0172 79 23 79L45 79C41.3013 77.448 36.9828 78 33 78L11 78z"/>
</svg>
