<svg id="svg" version="1.1" xmlns="http://www.w3.org/2000/svg" xmlns:xlink="http://www.w3.org/1999/xlink" width="400" height="400" viewBox="0, 0, 400,400"><g id="svgg"><path id="path0" d="M158.800 1.000 L 158.800 2.000 152.700 2.088 C 149.345 2.136,145.925 2.166,145.100 2.153 C 144.153 2.139,143.600 2.316,143.600 2.632 C 143.600 2.908,143.393 3.202,143.139 3.287 C 142.740 3.420,142.582 3.984,142.433 5.810 C 142.415 6.036,141.455 6.218,140.300 6.216 C 131.127 6.198,130.381 6.376,130.131 8.640 C 130.038 9.482,129.920 10.214,129.867 10.266 C 129.815 10.318,127.573 10.390,124.886 10.424 C 121.664 10.466,120.000 10.636,120.000 10.924 C 120.000 11.236,119.875 11.235,119.560 10.920 C 118.937 10.297,117.573 11.598,118.113 12.300 C 118.363 12.624,118.356 12.800,118.093 12.800 C 117.871 12.800,117.714 13.113,117.744 13.496 C 117.805 14.252,113.931 14.960,112.100 14.526 C 111.559 14.398,111.200 14.499,111.200 14.780 C 111.200 15.037,111.065 15.165,110.900 15.066 C 110.735 14.966,110.368 15.135,110.084 15.442 C 109.688 15.871,109.682 16.000,110.061 16.000 C 110.338 16.000,110.241 16.228,109.841 16.521 C 109.449 16.807,109.190 17.392,109.264 17.821 C 109.381 18.490,109.145 18.610,107.600 18.671 C 102.231 18.884,101.660 18.979,102.139 19.575 C 102.504 20.031,102.476 20.103,102.000 19.926 C 101.536 19.753,101.400 20.030,101.400 21.151 L 101.400 22.600 99.410 22.726 C 98.316 22.795,97.230 23.009,96.997 23.203 C 96.752 23.406,96.325 23.398,95.987 23.183 C 95.664 22.979,95.220 22.812,95.000 22.812 C 94.780 22.812,94.870 22.987,95.200 23.200 C 95.717 23.534,95.707 23.589,95.124 23.594 C 94.752 23.597,94.319 23.808,94.162 24.062 C 93.974 24.365,94.069 24.424,94.438 24.232 C 94.747 24.072,94.667 24.212,94.260 24.544 C 93.853 24.875,93.639 25.339,93.784 25.573 C 93.929 25.808,93.782 26.000,93.457 26.000 C 93.132 26.000,92.807 26.168,92.733 26.373 C 92.660 26.578,91.880 26.803,91.000 26.873 C 89.253 27.012,88.872 27.473,88.828 29.500 C 88.799 30.844,88.826 30.828,86.200 31.000 C 85.760 31.029,85.019 31.259,84.553 31.512 C 84.087 31.765,83.582 31.848,83.431 31.698 C 83.280 31.547,82.993 31.688,82.793 32.012 C 82.593 32.335,82.198 32.605,81.915 32.611 C 81.623 32.617,81.441 33.007,81.495 33.511 C 81.553 34.053,81.371 34.400,81.029 34.400 C 80.720 34.400,80.407 34.568,80.333 34.773 C 80.260 34.978,79.398 35.220,78.418 35.310 L 76.636 35.473 76.618 37.236 C 76.600 38.972,76.577 39.002,75.142 39.122 C 73.361 39.270,72.445 40.208,72.306 42.025 C 72.203 43.363,72.155 43.399,70.513 43.368 C 68.866 43.337,67.897 43.632,67.966 44.145 C 67.985 44.285,68.000 45.120,68.000 46.000 L 68.000 47.600 66.024 47.600 C 64.937 47.600,63.936 47.780,63.799 48.001 C 63.634 48.269,63.303 48.269,62.802 48.001 C 62.390 47.780,61.972 47.600,61.873 47.600 C 61.662 47.600,61.094 49.264,61.157 49.700 C 61.181 49.865,61.001 50.000,60.757 50.000 C 60.514 50.000,60.411 50.253,60.530 50.561 C 60.820 51.319,59.824 52.686,59.437 52.061 C 59.281 51.807,58.973 51.600,58.753 51.600 C 58.533 51.600,58.451 51.760,58.572 51.955 C 58.692 52.150,58.442 52.400,58.015 52.512 C 57.588 52.624,57.169 52.599,57.085 52.458 C 57.000 52.316,56.981 52.412,57.042 52.671 C 57.103 52.930,56.885 53.364,56.557 53.635 C 56.114 54.004,56.084 54.204,56.440 54.424 C 56.774 54.631,56.587 55.049,55.818 55.818 C 55.049 56.587,54.631 56.774,54.424 56.440 C 54.204 56.084,54.004 56.114,53.635 56.557 C 53.364 56.885,52.930 57.103,52.671 57.042 C 52.412 56.981,52.316 57.000,52.458 57.085 C 52.599 57.169,52.624 57.588,52.512 58.015 C 52.400 58.442,52.150 58.692,51.955 58.572 C 51.430 58.247,51.524 58.964,52.080 59.520 C 52.453 59.893,52.453 60.000,52.080 60.000 C 51.771 60.000,51.600 60.706,51.600 61.978 L 51.600 63.956 49.700 64.078 L 47.800 64.200 47.600 66.200 C 47.417 68.025,47.318 68.188,46.460 68.068 C 45.129 67.881,43.340 68.714,43.342 69.519 C 43.346 72.264,43.269 72.400,41.700 72.406 C 40.875 72.409,40.020 72.544,39.800 72.706 C 39.392 73.006,39.365 73.130,39.260 75.161 C 39.190 76.512,37.286 77.518,36.415 76.664 C 36.056 76.311,35.974 76.343,36.071 76.800 C 36.142 77.130,36.020 77.370,35.800 77.334 C 35.568 77.296,35.343 78.720,35.263 80.732 C 35.100 84.869,35.062 84.947,33.374 84.673 C 31.730 84.407,31.007 85.158,31.131 87.002 C 31.229 88.454,29.450 89.849,28.360 89.175 C 27.663 88.744,27.181 89.085,27.460 89.813 C 27.584 90.136,27.486 90.400,27.243 90.400 C 26.999 90.400,26.800 90.591,26.800 90.824 C 26.800 91.057,26.968 91.143,27.174 91.016 C 27.407 90.872,27.407 91.279,27.174 92.090 C 26.968 92.807,26.800 94.273,26.800 95.347 C 26.800 97.283,26.790 97.298,25.653 97.071 C 23.643 96.669,22.986 97.739,22.853 101.633 C 22.734 105.134,22.523 105.573,21.074 105.336 C 19.773 105.123,18.780 106.110,18.742 107.653 C 18.724 108.394,18.624 110.013,18.521 111.252 L 18.333 113.504 16.733 113.718 C 14.627 114.001,14.719 113.817,14.490 118.198 C 14.305 121.733,14.233 122.001,13.526 121.776 C 13.105 121.643,12.508 121.744,12.198 122.001 C 11.889 122.259,11.449 122.354,11.222 122.214 C 10.967 122.056,10.910 122.221,11.073 122.645 C 11.270 123.159,11.194 123.250,10.768 123.007 C 10.324 122.753,10.302 122.793,10.671 123.192 C 10.962 123.508,11.019 124.025,10.820 124.551 C 10.644 125.018,10.467 127.277,10.429 129.572 C 10.347 134.392,10.296 134.534,8.735 134.305 C 8.091 134.211,7.470 134.286,7.355 134.473 C 7.239 134.660,7.022 134.737,6.872 134.645 C 6.623 134.491,6.239 140.418,6.211 144.849 C 6.203 146.161,6.055 146.642,5.700 146.506 C 5.423 146.400,5.200 146.612,5.200 146.981 C 5.200 147.354,5.011 147.530,4.770 147.382 C 4.120 146.980,2.256 148.860,2.896 149.274 C 3.295 149.532,3.285 149.674,2.847 149.956 C 2.239 150.348,2.019 154.313,2.007 165.100 L 2.000 171.200 1.000 171.200 L 0.000 171.200 0.000 198.000 L 0.000 224.800 1.000 224.800 L 2.000 224.800 2.008 231.500 C 2.014 237.150,2.212 246.875,2.359 248.724 C 2.381 249.012,2.588 249.131,2.818 248.989 C 3.047 248.847,3.452 248.909,3.718 249.125 C 3.983 249.342,4.650 249.468,5.200 249.406 C 6.160 249.297,6.201 249.382,6.214 251.546 C 6.241 256.163,6.522 261.369,6.814 262.661 C 6.986 263.425,6.962 263.900,6.757 263.774 C 6.561 263.652,6.400 263.743,6.400 263.976 C 6.400 264.209,6.670 264.400,7.000 264.400 C 7.330 264.400,7.600 264.591,7.600 264.824 C 7.600 265.057,7.392 265.119,7.138 264.962 C 6.863 264.792,6.785 264.851,6.943 265.108 C 7.090 265.346,7.735 265.474,8.375 265.393 C 10.063 265.179,10.347 265.805,10.430 269.909 C 10.501 273.401,10.867 274.544,11.858 274.367 C 12.046 274.333,12.671 274.327,13.248 274.353 L 14.295 274.400 14.485 278.679 C 14.607 281.406,14.843 283.014,15.138 283.113 C 15.392 283.197,15.600 283.442,15.600 283.657 C 15.600 283.872,15.420 283.936,15.200 283.800 C 14.980 283.664,14.800 283.743,14.800 283.976 C 14.800 284.209,15.025 284.403,15.300 284.406 C 15.636 284.410,15.603 284.544,15.200 284.814 C 14.681 285.161,14.704 285.295,15.376 285.808 C 15.921 286.223,16.235 286.267,16.426 285.957 C 16.626 285.634,16.774 285.634,16.974 285.957 C 17.124 286.201,17.611 286.400,18.055 286.400 C 18.723 286.400,18.843 286.624,18.746 287.700 C 18.583 289.532,19.181 292.395,19.735 292.428 C 19.991 292.444,19.840 292.611,19.400 292.800 C 18.700 293.101,18.689 293.147,19.313 293.172 C 19.704 293.187,20.133 293.480,20.264 293.823 C 20.396 294.166,20.759 294.348,21.072 294.228 C 21.430 294.090,21.536 294.179,21.358 294.468 C 21.166 294.779,21.351 294.854,21.937 294.700 C 22.740 294.491,23.186 296.353,22.847 298.500 C 22.821 298.665,22.986 298.800,23.214 298.800 C 23.491 298.800,23.483 299.072,23.188 299.622 C 22.946 300.074,22.836 300.659,22.942 300.922 C 23.079 301.259,23.146 301.243,23.168 300.869 C 23.186 300.577,23.666 300.892,24.236 301.569 C 25.208 302.725,26.370 303.322,25.775 302.360 C 25.580 302.044,25.724 302.038,26.286 302.339 C 26.844 302.638,27.026 303.078,26.923 303.879 C 26.694 305.655,27.583 306.925,29.138 307.042 C 30.926 307.177,30.944 307.231,31.382 313.600 C 31.455 314.661,31.663 315.008,32.239 315.035 C 32.658 315.054,33.306 315.204,33.681 315.370 C 34.055 315.535,34.550 315.554,34.781 315.412 C 35.035 315.255,35.220 315.635,35.250 316.376 C 35.277 317.049,35.345 317.780,35.400 318.000 C 35.455 318.220,35.523 318.658,35.550 318.973 C 35.583 319.350,35.974 319.506,36.697 319.428 C 37.747 319.317,38.908 319.556,40.566 320.226 C 41.145 320.460,41.251 320.407,41.004 320.006 C 40.784 319.651,40.831 319.572,41.145 319.766 C 41.954 320.266,41.200 320.815,40.075 320.545 C 39.484 320.403,39.110 320.408,39.245 320.555 C 39.611 320.955,42.481 321.254,42.242 320.867 C 42.128 320.684,42.289 320.533,42.600 320.533 C 42.911 320.533,43.072 320.683,42.959 320.867 C 42.845 321.050,42.943 321.200,43.176 321.200 C 43.409 321.200,43.601 320.885,43.601 320.500 C 43.602 320.115,43.927 319.260,44.322 318.600 C 44.718 317.940,45.289 316.770,45.592 316.000 C 45.895 315.230,46.690 313.822,47.359 312.872 C 48.202 311.675,48.661 310.445,48.853 308.872 C 49.615 302.612,49.859 302.063,52.379 300.916 C 53.161 300.561,54.377 299.846,55.083 299.328 C 55.788 298.810,57.316 298.206,58.479 297.985 C 60.883 297.529,63.441 295.714,63.327 294.546 C 63.287 294.135,63.132 293.060,62.982 292.155 C 62.584 289.756,63.488 288.566,66.132 288.005 C 67.269 287.764,69.069 287.142,70.132 286.624 C 72.036 285.696,73.975 285.749,75.400 286.770 C 75.808 287.062,77.740 287.664,80.600 288.389 C 84.205 289.304,87.200 287.923,87.200 285.346 C 87.200 284.403,89.820 282.048,93.820 279.396 C 96.531 277.598,98.593 275.943,98.799 275.402 C 98.993 274.893,99.567 274.077,100.075 273.589 C 100.997 272.704,100.997 272.703,100.109 273.160 C 99.619 273.412,99.037 273.958,98.815 274.372 C 97.721 276.415,89.215 282.000,87.196 282.000 C 86.463 282.000,85.534 282.298,85.131 282.662 C 84.423 283.303,84.400 282.178,84.400 247.436 C 84.400 219.458,84.290 211.355,83.900 210.674 C 83.015 209.128,83.196 167.632,84.100 164.827 C 85.048 161.884,85.076 151.400,84.142 149.000 C 83.619 147.657,83.463 143.647,83.173 124.000 C 82.805 99.037,82.731 98.097,80.954 95.546 C 80.319 94.636,79.529 93.383,79.198 92.762 C 78.448 91.356,73.038 86.000,72.368 86.000 C 72.097 86.000,71.185 85.296,70.342 84.436 C 69.230 83.301,68.341 82.794,67.104 82.588 C 66.167 82.432,64.693 81.946,63.829 81.508 L 62.257 80.711 63.229 79.970 C 63.763 79.563,64.920 79.124,65.800 78.995 C 69.217 78.493,173.342 78.974,174.518 79.497 C 175.467 79.919,175.799 79.888,176.701 79.297 C 177.836 78.554,349.863 78.170,352.488 78.905 C 353.932 79.309,354.461 80.410,354.835 83.789 C 356.053 94.796,356.029 94.656,357.497 99.200 C 358.244 101.513,358.677 104.284,359.185 110.000 C 359.409 112.530,360.114 116.760,360.751 119.400 C 364.010 132.906,363.591 136.762,359.017 135.385 C 356.919 134.754,355.600 133.809,355.600 132.938 C 355.600 132.642,355.420 132.400,355.200 132.400 C 354.980 132.400,354.800 132.128,354.800 131.795 C 354.800 130.955,354.021 129.718,352.566 128.247 C 351.888 127.561,350.909 126.235,350.392 125.300 C 349.876 124.365,349.319 123.600,349.155 123.600 C 348.991 123.600,348.040 122.525,347.041 121.212 C 345.021 118.555,341.803 114.995,339.463 112.825 C 338.617 112.041,337.065 110.588,336.014 109.595 C 334.962 108.602,333.584 107.522,332.952 107.195 C 332.319 106.868,331.106 105.919,330.255 105.086 C 329.405 104.254,328.072 103.306,327.293 102.981 C 326.514 102.655,325.385 101.875,324.784 101.246 C 324.115 100.546,322.783 99.842,321.346 99.429 C 318.752 98.683,314.800 96.863,314.800 96.415 C 314.800 95.945,311.977 95.251,309.256 95.053 C 307.591 94.932,306.024 94.511,304.719 93.834 C 302.993 92.938,302.227 92.800,298.996 92.800 C 295.806 92.800,294.975 92.654,293.258 91.792 L 291.251 90.783 273.925 90.907 C 261.196 90.998,256.176 91.168,255.000 91.546 C 254.120 91.829,252.680 92.193,251.800 92.356 C 250.920 92.518,249.480 93.029,248.600 93.492 C 247.720 93.955,246.515 94.520,245.921 94.749 C 243.711 95.599,243.465 96.501,242.418 107.600 C 242.200 109.910,241.825 113.240,241.586 115.000 C 240.865 120.293,240.562 175.027,241.250 175.679 C 243.123 177.454,257.611 177.986,260.894 176.400 C 261.805 175.960,263.371 175.590,264.375 175.577 C 265.379 175.564,267.370 175.226,268.800 174.826 C 273.589 173.484,276.197 172.639,276.600 172.298 C 277.944 171.162,281.854 168.408,282.129 168.404 C 282.563 168.399,283.217 167.704,284.391 166.000 C 284.922 165.230,285.919 163.930,286.607 163.111 C 287.295 162.293,288.280 160.358,288.796 158.811 C 289.313 157.265,289.856 156.000,290.003 156.000 C 290.620 156.000,291.485 153.549,293.234 146.846 C 293.888 144.341,294.777 141.794,295.211 141.184 C 295.645 140.575,296.000 139.888,296.000 139.657 C 296.000 136.701,299.714 135.298,302.104 137.351 C 304.278 139.219,304.444 140.830,303.964 155.400 C 303.451 170.957,303.338 174.905,302.780 196.600 C 301.869 232.069,301.779 232.494,295.651 230.358 C 293.812 229.717,292.400 226.172,292.400 222.199 C 292.400 221.230,292.195 219.934,291.944 219.319 C 290.279 215.236,289.915 214.213,289.200 211.600 C 288.352 208.502,287.904 207.443,286.836 206.007 C 286.266 205.240,285.328 203.890,284.752 203.007 C 283.391 200.923,281.790 199.231,279.800 197.778 C 278.920 197.135,277.930 196.320,277.600 195.967 C 276.687 194.991,275.340 194.379,273.273 194.000 C 270.368 193.468,268.611 192.964,267.185 192.253 C 266.466 191.894,264.942 191.600,263.800 191.600 C 262.608 191.600,261.143 191.302,260.361 190.900 C 257.803 189.585,242.342 189.715,240.994 191.063 C 240.291 191.767,240.117 259.075,240.800 266.100 C 241.547 273.783,243.864 282.310,245.780 284.430 C 246.581 285.317,247.426 286.459,247.658 286.968 C 247.901 287.502,248.952 288.279,250.140 288.805 C 251.273 289.306,252.492 289.967,252.849 290.274 C 254.832 291.978,257.557 292.464,266.800 292.763 C 278.301 293.134,278.800 293.312,278.800 297.030 L 278.800 299.512 277.004 300.356 C 274.797 301.394,196.121 301.721,194.295 300.700 C 192.104 299.476,191.986 299.251,192.652 297.586 C 194.271 293.540,188.812 290.465,185.073 293.317 C 183.263 294.697,183.356 294.722,182.349 292.582 L 181.495 290.764 182.417 289.782 C 182.924 289.242,183.512 288.800,183.723 288.800 C 184.138 288.800,185.999 286.777,186.000 286.324 C 186.000 286.173,186.719 285.218,187.598 284.202 C 188.477 283.187,189.301 281.871,189.430 281.278 C 189.559 280.685,189.816 279.750,190.000 279.200 C 190.184 278.650,190.437 277.067,190.563 275.682 C 190.689 274.296,190.995 272.783,191.243 272.319 C 193.945 267.270,195.155 144.233,192.766 117.400 C 192.373 112.985,192.061 110.923,190.586 103.000 C 190.300 101.460,189.934 99.480,189.774 98.600 C 189.480 96.985,188.278 94.870,187.320 94.280 C 187.034 94.104,186.522 93.423,186.183 92.767 C 185.771 91.970,184.806 91.219,183.283 90.507 C 182.027 89.920,180.910 89.333,180.800 89.202 C 179.688 87.880,177.155 87.121,172.633 86.754 C 169.509 86.501,167.467 86.143,166.851 85.739 C 166.328 85.396,165.787 85.275,165.650 85.469 C 165.512 85.663,164.669 86.144,163.775 86.538 C 162.881 86.932,161.801 87.737,161.375 88.327 C 160.949 88.917,159.930 90.030,159.112 90.800 C 158.209 91.649,157.209 93.224,156.572 94.800 C 155.993 96.230,155.377 97.580,155.203 97.800 C 152.501 101.204,152.600 97.520,152.600 194.600 L 152.600 283.800 151.760 285.221 C 150.979 286.542,150.958 286.791,151.455 288.735 C 152.273 291.932,151.756 292.534,148.400 292.287 L 145.800 292.096 148.294 292.716 C 151.183 293.435,152.399 292.702,152.401 290.239 C 152.407 285.934,156.636 285.636,156.771 289.931 C 156.805 291.034,158.840 293.200,159.841 293.200 C 160.227 293.200,161.123 293.410,161.832 293.666 C 162.932 294.064,163.418 294.005,165.135 293.266 C 167.111 292.416,171.900 292.033,172.541 292.674 C 173.324 293.457,175.840 293.931,177.534 293.615 C 180.663 293.030,181.544 295.979,178.760 297.718 C 176.637 299.044,179.256 301.814,183.575 302.813 C 185.656 303.294,188.041 304.435,189.093 305.452 C 189.364 305.714,189.770 305.990,189.996 306.065 C 191.718 306.639,192.367 314.877,191.003 318.833 C 189.625 322.829,188.965 322.859,106.304 322.728 C 67.361 322.667,44.674 322.772,44.442 323.016 C 44.240 323.227,43.986 324.087,43.878 324.926 C 43.769 325.766,43.580 326.553,43.456 326.677 C 43.333 326.800,43.498 327.417,43.824 328.047 C 44.575 329.499,44.583 329.640,43.934 330.041 C 43.504 330.307,43.536 330.507,44.100 331.071 C 44.485 331.456,44.800 331.568,44.800 331.319 C 44.800 331.070,44.575 330.780,44.300 330.674 C 44.025 330.568,44.185 330.500,44.656 330.523 C 45.220 330.550,45.438 330.756,45.296 331.128 C 45.137 331.542,45.293 331.624,45.883 331.437 C 47.237 331.007,47.800 332.237,47.800 335.620 C 47.800 335.631,48.610 335.741,49.600 335.864 C 51.782 336.135,51.635 336.004,51.726 337.757 C 51.767 338.549,51.946 339.197,52.124 339.198 C 52.302 339.199,52.317 339.411,52.158 339.668 C 51.964 339.983,52.087 340.052,52.534 339.881 C 52.900 339.740,53.200 339.799,53.200 340.013 C 53.200 340.226,53.391 340.400,53.624 340.400 C 53.857 340.400,53.940 340.227,53.810 340.016 C 53.672 339.794,54.099 339.815,54.823 340.068 C 55.884 340.438,56.043 340.662,55.874 341.548 C 55.625 342.849,56.273 344.134,57.031 343.844 C 57.344 343.723,57.600 343.812,57.600 344.040 C 57.600 344.267,57.915 344.356,58.300 344.236 C 59.462 343.875,60.131 344.624,60.167 346.326 C 60.185 347.204,60.335 347.839,60.500 347.738 C 60.665 347.636,60.800 347.717,60.800 347.918 C 60.800 348.119,61.439 348.251,62.220 348.212 C 63.892 348.129,64.113 348.394,64.177 350.566 C 64.210 351.687,64.410 352.217,64.813 352.254 C 65.136 352.283,65.940 352.334,66.600 352.367 C 68.002 352.435,69.709 353.576,68.876 353.887 C 68.473 354.037,68.520 354.276,69.076 354.909 C 69.777 355.709,69.776 355.727,69.043 355.459 C 68.401 355.224,68.363 355.274,68.792 355.791 C 69.465 356.602,69.997 356.562,70.012 355.700 C 70.024 355.044,70.050 355.043,70.423 355.683 C 70.642 356.059,71.068 356.272,71.370 356.156 C 71.672 356.040,72.038 356.138,72.183 356.373 C 72.328 356.608,73.337 356.800,74.424 356.800 L 76.400 356.800 76.447 358.500 C 76.473 359.435,76.484 360.302,76.472 360.427 C 76.459 360.551,77.288 360.696,78.314 360.750 C 80.560 360.866,80.354 360.674,80.548 362.824 L 80.707 364.594 82.654 364.733 C 85.010 364.903,84.875 364.779,84.998 366.882 C 85.078 368.245,85.253 368.607,85.849 368.635 C 86.262 368.654,86.888 368.797,87.240 368.954 C 87.592 369.111,88.042 369.210,88.240 369.173 C 90.387 368.771,92.800 369.262,92.806 370.100 C 92.818 372.020,93.693 372.965,95.606 373.126 C 97.329 373.270,98.169 373.803,97.748 374.485 C 97.487 374.906,99.016 376.851,99.347 376.520 C 99.486 376.381,99.600 376.488,99.600 376.758 C 99.600 377.029,99.915 377.218,100.300 377.179 C 103.000 376.904,105.563 377.231,105.337 377.820 C 105.199 378.180,105.495 378.862,106.040 379.443 C 106.882 380.338,106.898 380.415,106.191 380.168 C 105.410 379.896,105.410 379.901,106.197 380.512 C 106.783 380.967,107.074 381.008,107.291 380.666 C 107.511 380.320,107.589 380.328,107.594 380.696 C 107.597 380.968,108.005 381.189,108.500 381.185 C 111.839 381.165,113.927 381.704,114.104 382.634 C 114.203 383.152,114.130 383.481,113.942 383.364 C 113.754 383.248,113.600 383.343,113.600 383.576 C 113.600 383.809,113.870 384.000,114.200 384.000 C 114.530 384.000,114.800 384.191,114.800 384.424 C 114.800 384.657,114.575 384.718,114.300 384.559 C 114.010 384.393,113.940 384.425,114.132 384.635 C 114.315 384.835,115.035 385.029,115.732 385.068 C 116.430 385.106,117.360 385.227,117.800 385.338 C 118.240 385.448,120.265 385.553,122.300 385.569 L 126.000 385.600 126.000 387.120 C 126.000 389.323,126.484 389.598,130.380 389.613 C 133.720 389.625,136.032 390.378,134.998 391.116 C 134.265 391.639,134.366 392.754,135.187 393.193 C 135.808 393.525,136.001 393.507,136.006 393.114 C 136.011 392.727,136.099 392.738,136.365 393.157 C 136.572 393.484,137.066 393.624,137.559 393.495 C 138.022 393.374,138.400 393.422,138.400 393.601 C 138.400 393.781,141.139 393.951,144.486 393.979 C 150.954 394.034,151.169 394.101,151.035 396.028 C 150.993 396.645,151.102 397.060,151.279 396.951 C 151.455 396.842,151.600 396.913,151.600 397.110 C 151.600 397.751,153.908 397.889,165.600 397.950 L 175.200 398.000 175.200 399.000 L 175.200 400.000 202.000 400.000 L 228.800 400.000 228.800 399.000 L 228.800 398.000 237.500 397.934 C 242.285 397.898,246.629 397.875,247.152 397.882 C 248.069 397.895,249.651 396.720,249.553 396.100 C 249.216 393.970,249.124 394.000,256.026 394.000 C 259.934 394.000,262.775 393.828,263.275 393.560 C 263.872 393.240,264.022 393.240,263.825 393.560 C 263.675 393.802,263.743 394.000,263.976 394.000 C 264.209 394.000,264.400 393.790,264.400 393.533 C 264.400 393.277,264.517 393.184,264.660 393.327 C 265.095 393.762,265.965 392.255,265.772 391.400 C 265.420 389.836,265.994 389.658,271.735 389.548 L 277.255 389.442 277.840 388.042 C 278.162 387.272,278.335 386.408,278.225 386.121 C 278.048 385.660,282.836 385.276,285.100 385.570 C 285.375 385.606,285.600 385.437,285.600 385.194 C 285.600 384.951,285.784 384.867,286.010 385.006 C 286.235 385.145,286.394 385.111,286.363 384.930 C 286.331 384.748,286.327 383.925,286.353 383.100 L 286.400 381.600 289.700 381.586 C 292.714 381.573,294.706 381.068,294.774 380.300 C 294.788 380.135,294.800 379.370,294.800 378.600 L 294.800 377.200 297.974 377.200 C 302.279 377.200,303.053 376.866,303.124 374.978 C 303.195 373.095,302.980 373.223,306.183 373.154 C 308.957 373.093,310.956 372.417,311.054 371.504 C 311.083 371.227,311.128 370.595,311.154 370.100 C 311.192 369.347,311.428 369.200,312.600 369.200 C 314.439 369.200,315.600 368.039,315.600 366.200 L 315.600 364.800 317.700 364.754 C 318.855 364.729,320.115 364.740,320.500 364.779 C 320.885 364.818,321.200 364.629,321.200 364.358 C 321.200 364.088,321.317 363.984,321.460 364.127 C 321.604 364.270,321.964 364.075,322.261 363.694 C 322.764 363.048,322.783 363.053,322.533 363.766 C 322.356 364.269,322.414 364.439,322.701 364.261 C 323.438 363.806,323.759 361.547,323.143 361.156 C 322.783 360.928,323.138 360.795,324.200 360.760 C 325.080 360.731,325.980 360.666,326.200 360.615 C 326.420 360.564,326.836 360.494,327.124 360.461 C 327.412 360.427,327.536 360.220,327.400 360.000 C 327.264 359.780,327.298 359.600,327.476 359.599 C 327.654 359.599,327.840 359.034,327.888 358.344 C 327.998 356.781,327.896 356.862,329.912 356.743 C 330.950 356.682,331.619 356.443,331.650 356.122 C 331.678 355.835,331.745 355.420,331.800 355.200 C 331.855 354.980,331.923 354.260,331.950 353.600 C 331.999 352.433,332.056 352.400,334.000 352.400 L 336.000 352.400 336.000 350.400 L 336.000 348.400 338.300 348.353 C 339.565 348.327,340.843 348.339,341.140 348.379 C 341.460 348.423,341.562 348.262,341.390 347.984 C 341.184 347.650,341.361 347.597,342.000 347.800 C 342.561 347.978,342.808 347.936,342.654 347.688 C 342.519 347.470,342.681 347.065,343.014 346.789 C 343.524 346.365,343.580 346.405,343.371 347.043 C 343.169 347.665,343.201 347.693,343.553 347.200 C 343.789 346.870,343.887 346.294,343.770 345.920 C 343.494 345.032,345.032 343.494,345.920 343.770 C 346.294 343.887,346.870 343.789,347.200 343.553 C 347.693 343.201,347.665 343.169,347.043 343.371 C 346.405 343.580,346.365 343.524,346.789 343.014 C 347.065 342.681,347.470 342.519,347.688 342.654 C 347.936 342.808,347.978 342.561,347.800 342.000 C 347.597 341.361,347.650 341.184,347.984 341.390 C 348.262 341.562,348.423 341.460,348.379 341.140 C 348.339 340.843,348.327 339.565,348.353 338.300 L 348.400 336.000 350.400 336.000 L 352.400 336.000 352.400 334.000 C 352.400 332.161,352.477 332.000,353.350 332.000 C 356.035 332.000,356.642 331.620,356.745 329.877 C 356.863 327.889,356.710 328.058,358.489 327.938 C 359.292 327.884,359.859 327.696,359.751 327.520 C 359.642 327.344,359.788 327.200,360.076 327.200 C 360.408 327.200,360.635 326.591,360.696 325.537 C 360.811 323.551,360.652 323.730,362.526 323.482 C 364.439 323.230,364.451 323.216,364.698 321.028 C 364.810 320.031,365.040 319.301,365.209 319.406 C 365.378 319.510,365.631 319.296,365.771 318.931 C 365.966 318.424,366.137 318.377,366.493 318.733 C 367.076 319.316,368.000 319.342,368.000 318.776 C 368.000 318.543,367.792 318.481,367.538 318.638 C 367.250 318.816,367.185 318.748,367.366 318.455 C 367.525 318.198,367.810 318.083,368.000 318.200 C 368.190 318.317,368.458 318.230,368.596 318.007 C 368.734 317.783,368.612 317.597,368.324 317.594 C 367.918 317.589,367.925 317.508,368.358 317.234 C 368.665 317.040,368.806 316.593,368.671 316.240 C 368.536 315.888,368.567 315.600,368.741 315.600 C 368.915 315.600,369.100 314.659,369.152 313.509 C 369.266 311.014,369.071 311.257,371.079 311.116 C 371.983 311.052,372.639 310.865,372.538 310.700 C 372.436 310.535,372.529 310.400,372.744 310.400 C 372.960 310.400,373.130 309.815,373.123 309.100 C 373.102 307.049,373.173 306.736,373.600 307.000 C 373.820 307.136,374.000 307.046,374.000 306.800 C 374.000 306.527,374.469 306.426,375.198 306.541 C 376.455 306.739,377.208 306.242,376.224 305.864 C 375.909 305.744,375.564 305.819,375.456 306.032 C 375.348 306.246,375.310 306.190,375.371 305.910 C 375.433 305.630,375.776 305.452,376.135 305.516 C 376.603 305.599,376.713 305.440,376.526 304.950 C 376.363 304.527,376.422 304.366,376.682 304.527 C 376.955 304.696,377.119 303.794,377.158 301.917 C 377.227 298.566,377.100 298.794,378.927 298.726 C 379.720 298.696,380.276 298.523,380.163 298.340 C 380.051 298.158,380.267 298.127,380.644 298.272 C 381.194 298.483,381.284 298.364,381.102 297.667 C 380.977 297.190,381.051 296.800,381.266 296.800 C 381.481 296.800,381.624 296.395,381.584 295.900 C 381.298 292.368,381.600 290.600,382.500 290.540 C 385.264 290.357,385.364 290.147,385.540 284.137 C 385.595 282.234,385.667 282.092,386.463 282.300 C 387.049 282.454,387.234 282.379,387.042 282.068 C 386.855 281.766,386.981 281.695,387.409 281.859 C 387.889 282.043,388.026 281.910,387.930 281.354 C 387.835 280.803,388.003 280.635,388.554 280.730 C 389.110 280.826,389.243 280.689,389.059 280.209 C 388.913 279.830,388.974 279.660,389.205 279.803 C 389.422 279.937,389.600 279.782,389.600 279.457 C 389.600 279.132,389.375 278.776,389.100 278.665 C 388.700 278.504,388.700 278.457,389.100 278.432 C 389.466 278.408,389.600 277.276,389.600 274.200 L 389.600 270.000 390.700 269.945 C 391.305 269.915,392.111 269.891,392.491 269.892 C 392.871 269.893,393.094 269.753,392.987 269.579 C 392.880 269.406,393.035 269.022,393.332 268.725 C 393.719 268.339,393.897 266.716,393.962 262.999 C 394.012 260.147,394.093 257.773,394.142 257.725 C 394.190 257.676,394.919 257.590,395.760 257.533 C 397.892 257.390,397.838 257.650,397.942 247.100 L 398.000 241.200 399.000 241.200 L 400.000 241.200 400.000 198.400 L 400.000 155.600 399.000 155.600 L 398.000 155.600 397.967 149.700 C 397.948 146.455,397.853 143.350,397.755 142.800 C 397.657 142.250,397.536 141.230,397.487 140.532 C 397.438 139.835,397.235 139.115,397.035 138.932 C 396.825 138.740,396.793 138.810,396.959 139.100 C 397.118 139.375,397.057 139.600,396.824 139.600 C 396.591 139.600,396.387 139.285,396.372 138.900 C 396.348 138.301,396.294 138.316,396.000 139.000 C 395.811 139.440,395.644 139.556,395.628 139.257 C 395.612 138.949,395.346 138.812,395.013 138.940 C 394.114 139.285,394.043 138.912,393.962 133.470 C 393.906 129.741,393.742 128.284,393.338 127.949 C 392.924 127.605,392.901 127.360,393.244 126.947 C 393.494 126.646,393.631 126.383,393.549 126.363 C 393.467 126.343,392.680 126.273,391.800 126.208 C 390.920 126.143,390.065 126.069,389.900 126.045 C 389.735 126.020,389.600 124.219,389.600 122.043 C 389.600 117.685,389.550 117.600,386.967 117.600 L 385.600 117.600 385.600 114.660 C 385.600 110.478,385.154 109.419,383.353 109.326 C 381.517 109.230,381.657 109.533,381.568 105.474 C 381.481 101.557,381.236 101.200,378.626 101.200 L 377.200 101.200 377.200 97.376 C 377.200 94.929,377.056 93.642,376.800 93.800 C 376.580 93.936,376.400 93.756,376.400 93.400 C 376.400 93.044,376.238 92.853,376.041 92.975 C 374.520 93.915,373.200 92.695,373.200 90.350 C 373.200 88.951,373.027 88.000,372.773 88.000 C 372.537 88.000,372.453 87.663,372.585 87.247 C 372.736 86.772,372.598 86.408,372.212 86.260 C 371.875 86.131,371.587 85.704,371.572 85.313 C 371.547 84.689,371.501 84.700,371.200 85.400 C 371.011 85.840,370.844 85.975,370.828 85.700 C 370.813 85.425,370.440 85.200,370.000 85.200 C 369.370 85.200,369.193 84.923,369.169 83.900 C 369.099 80.914,368.950 80.709,366.699 80.499 C 364.614 80.305,364.823 80.630,364.755 77.473 C 364.719 75.804,364.528 74.798,364.248 74.794 C 364.002 74.791,364.070 74.613,364.400 74.400 C 364.922 74.063,364.915 74.011,364.349 74.006 C 363.991 74.003,363.460 73.685,363.168 73.300 C 362.718 72.704,362.722 72.675,363.199 73.100 C 363.959 73.778,364.596 73.739,363.914 73.057 C 363.585 72.727,362.865 72.588,362.085 72.702 C 360.858 72.882,360.561 72.602,360.767 71.458 C 360.800 71.270,360.620 70.865,360.365 70.558 C 360.007 70.127,360.027 69.999,360.451 69.994 C 360.915 69.989,360.914 69.933,360.449 69.639 C 360.110 69.424,360.024 69.080,360.226 68.745 C 360.495 68.296,360.442 68.290,359.923 68.710 C 359.405 69.130,359.252 69.113,359.062 68.617 C 358.896 68.185,358.494 68.081,357.641 68.252 C 356.483 68.483,356.455 68.453,356.585 67.060 C 356.666 66.185,356.502 65.451,356.163 65.169 C 355.858 64.916,355.691 64.576,355.791 64.414 C 355.892 64.251,355.353 64.149,354.594 64.187 C 352.699 64.282,352.462 64.050,352.322 61.960 L 352.200 60.139 350.410 60.047 C 348.241 59.934,348.437 60.136,348.307 57.874 C 348.248 56.844,348.110 55.990,348.000 55.977 C 347.890 55.964,347.101 55.881,346.248 55.791 C 344.350 55.593,344.426 55.669,344.228 53.762 C 344.139 52.903,344.052 52.100,344.033 51.978 C 344.015 51.856,343.240 51.712,342.312 51.657 C 340.282 51.537,340.458 51.695,340.336 49.885 C 340.281 49.068,340.083 48.400,339.895 48.400 C 339.707 48.400,339.667 48.216,339.806 47.990 C 339.945 47.765,339.911 47.606,339.730 47.637 C 337.231 48.072,336.100 47.584,335.840 45.960 C 335.654 44.795,335.349 44.259,334.789 44.113 C 334.355 44.000,334.000 43.733,334.000 43.522 C 334.000 43.310,333.506 43.245,332.900 43.378 C 331.901 43.597,331.792 43.509,331.713 42.410 C 331.526 39.829,331.456 39.622,330.914 40.071 C 330.527 40.392,330.392 40.313,330.368 39.749 C 330.351 39.337,330.254 39.201,330.153 39.446 C 329.799 40.306,327.385 39.466,327.517 38.529 C 327.591 37.998,327.184 37.321,326.386 36.650 C 325.700 36.072,325.362 35.600,325.636 35.600 C 325.910 35.600,326.038 35.505,325.922 35.389 C 325.806 35.273,325.236 35.358,324.655 35.579 C 323.977 35.837,323.600 35.841,323.600 35.590 C 323.600 35.376,322.700 35.200,321.600 35.200 C 319.469 35.200,319.471 35.202,319.520 32.718 C 319.544 31.508,318.743 31.073,316.400 31.027 C 315.184 31.004,315.016 30.882,315.125 30.100 C 315.200 29.562,315.039 29.198,314.725 29.194 C 314.313 29.189,314.307 29.120,314.700 28.870 C 315.091 28.622,315.070 28.384,314.599 27.776 C 314.007 27.012,314.002 27.012,314.267 27.800 C 314.532 28.589,314.524 28.590,313.668 27.838 C 313.185 27.414,312.800 27.281,312.800 27.538 C 312.800 27.792,312.620 28.000,312.400 28.000 C 312.180 28.000,312.000 27.758,312.000 27.462 C 312.000 27.082,311.327 26.901,309.721 26.849 C 307.052 26.762,307.294 26.897,307.130 25.397 C 306.906 23.335,306.039 22.921,301.800 22.850 L 298.800 22.800 298.800 21.476 C 298.800 19.598,298.003 18.690,296.366 18.701 C 293.422 18.720,290.800 18.329,290.798 17.871 C 290.792 16.692,289.939 14.493,289.494 14.508 C 289.222 14.518,287.515 14.498,285.700 14.463 L 282.400 14.400 282.400 12.643 C 282.400 10.483,282.221 10.400,277.580 10.400 C 274.637 10.400,274.063 10.300,274.248 9.819 C 274.371 9.500,274.323 9.005,274.142 8.719 C 273.960 8.434,273.809 7.857,273.806 7.437 C 273.799 6.599,273.991 6.626,265.964 6.347 C 262.281 6.219,261.751 6.115,261.899 5.545 C 261.993 5.185,261.891 4.780,261.672 4.645 C 261.454 4.510,261.377 4.011,261.501 3.537 C 261.655 2.946,261.580 2.765,261.263 2.961 C 261.008 3.118,260.800 3.057,260.800 2.824 C 260.800 2.591,260.665 2.421,260.500 2.447 C 260.335 2.473,260.020 2.445,259.800 2.385 C 259.242 2.231,257.495 2.173,250.700 2.080 L 244.800 2.000 244.800 1.000 L 244.800 0.000 201.800 0.000 L 158.800 0.000 158.800 1.000 M68.561 274.104 C 70.896 276.438,69.349 280.000,66.000 280.000 C 62.635 280.000,61.380 276.875,63.648 274.143 C 64.222 273.451,67.879 273.422,68.561 274.104 M102.569 275.440 C 103.075 277.496,103.880 278.256,107.392 279.996 C 109.540 281.060,111.213 282.195,111.834 283.009 C 113.413 285.079,118.600 286.283,123.881 285.807 C 125.377 285.672,127.376 285.705,128.325 285.881 C 130.047 286.200,130.386 286.448,135.579 291.204 C 137.941 293.367,138.731 293.544,142.800 292.820 C 144.408 292.534,144.237 292.493,141.200 292.437 C 137.682 292.372,136.890 292.075,136.053 290.504 C 135.791 290.011,134.997 289.314,134.288 288.954 C 133.580 288.594,132.359 287.580,131.575 286.699 L 130.149 285.098 124.575 285.016 C 115.524 284.883,113.808 284.571,112.275 282.779 C 111.568 281.953,110.272 280.945,109.395 280.539 C 108.518 280.132,107.595 279.620,107.344 279.400 C 107.094 279.180,106.387 278.640,105.774 278.200 C 104.241 277.099,103.200 275.946,103.200 275.348 C 103.200 275.073,102.994 274.720,102.742 274.564 C 102.415 274.362,102.365 274.614,102.569 275.440 M137.728 278.487 C 137.006 279.432,136.000 281.913,136.034 282.660 C 136.059 283.190,136.156 283.115,136.374 282.397 C 137.443 278.883,138.122 278.396,139.853 279.906 C 140.543 280.508,141.587 281.381,142.174 281.847 L 143.241 282.694 140.721 283.932 C 137.842 285.346,138.094 285.615,141.120 284.358 C 144.267 283.050,144.163 282.472,140.226 279.400 C 138.299 277.896,138.205 277.861,137.728 278.487 M137.002 284.402 C 137.402 284.844,137.811 285.122,137.912 285.021 C 138.128 284.805,136.988 283.600,136.567 283.600 C 136.407 283.600,136.603 283.961,137.002 284.402 M145.652 286.137 C 145.049 286.864,145.830 288.800,146.726 288.800 C 147.932 288.800,150.223 286.700,149.363 286.384 C 147.398 285.662,146.117 285.577,145.652 286.137 M163.280 286.880 C 162.907 287.253,162.800 287.147,162.800 286.400 C 162.800 285.653,162.907 285.547,163.280 285.920 C 163.653 286.293,163.653 286.507,163.280 286.880 M148.000 286.750 C 148.000 286.892,147.656 287.222,147.236 287.485 C 146.454 287.973,145.709 287.195,146.199 286.401 C 146.423 286.039,148.000 286.344,148.000 286.750 M188.721 295.884 L 187.829 296.834 187.151 295.935 C 186.242 294.729,187.206 293.838,188.688 294.513 L 189.613 294.934 188.721 295.884 M184.497 296.300 C 184.803 296.905,185.306 297.801,185.616 298.290 C 186.666 299.948,183.699 301.162,182.050 299.750 C 181.307 299.114,181.313 299.056,182.302 297.150 C 183.470 294.898,183.737 294.795,184.497 296.300 " stroke="none" fill="#f3d394" fill-rule="evenodd"></path><path id="path1" d="M65.000 79.072 C 64.560 79.162,63.763 79.568,63.229 79.973 L 62.257 80.711 63.829 81.508 C 64.693 81.946,66.167 82.432,67.104 82.588 C 68.341 82.794,69.230 83.301,70.342 84.436 C 71.185 85.296,72.097 86.000,72.368 86.000 C 73.038 86.000,78.448 91.356,79.198 92.762 C 79.529 93.383,80.319 94.636,80.954 95.546 C 82.731 98.097,82.805 99.037,83.173 124.000 C 83.463 143.647,83.619 147.657,84.142 149.000 C 85.051 151.334,85.051 161.924,84.142 164.636 C 83.586 166.296,83.457 169.213,83.306 183.492 L 83.127 200.384 84.097 200.826 C 85.100 201.283,86.400 203.112,86.400 204.066 C 86.400 204.365,86.961 205.057,87.646 205.604 C 90.684 208.031,90.789 208.378,90.796 216.042 C 90.800 220.836,90.848 221.135,91.781 222.142 C 93.795 224.315,98.738 223.250,98.828 220.625 C 98.844 220.171,98.990 215.351,99.153 209.913 C 99.496 198.435,99.578 198.194,102.899 198.836 C 103.835 199.017,104.706 199.173,104.835 199.183 C 104.964 199.192,105.827 199.920,106.752 200.800 C 107.677 201.680,108.614 202.400,108.835 202.400 C 110.434 202.400,111.200 204.331,111.200 208.363 C 111.200 212.420,111.547 213.839,112.939 215.462 L 113.678 216.323 115.658 215.500 C 118.889 214.158,119.200 213.492,119.200 207.923 C 119.200 200.576,120.345 197.486,122.536 198.921 C 123.985 199.871,124.400 202.359,124.400 210.107 C 124.400 216.802,124.433 217.092,125.300 217.903 C 126.382 218.915,129.968 220.199,130.410 219.732 C 131.207 218.891,132.400 216.278,132.400 215.375 C 132.400 213.890,133.353 211.922,134.578 210.876 C 135.174 210.368,135.908 209.360,136.211 208.636 C 136.513 207.912,137.374 206.706,138.122 205.958 L 139.483 204.597 139.908 198.924 C 140.343 193.098,140.885 191.110,142.102 190.876 C 143.179 190.668,143.905 191.687,144.214 193.838 C 144.811 198.007,147.299 199.934,151.200 199.250 C 152.942 198.944,152.901 200.312,152.612 152.155 C 152.308 101.508,152.278 102.223,154.842 98.400 C 155.211 97.849,155.987 96.229,156.568 94.800 C 157.205 93.230,158.213 91.645,159.112 90.800 C 159.930 90.030,160.953 88.911,161.385 88.313 C 161.817 87.716,162.672 87.019,163.285 86.765 C 164.033 86.455,164.400 86.010,164.400 85.413 C 164.400 83.606,166.138 82.460,170.844 81.166 C 172.844 80.615,173.169 79.500,171.463 79.042 C 170.502 78.785,66.265 78.814,65.000 79.072 M99.366 273.300 C 97.273 275.585,96.590 276.671,98.486 274.700 C 100.557 272.547,101.647 272.308,102.351 273.852 C 102.614 274.430,102.933 274.800,103.059 274.675 C 103.392 274.342,101.634 272.000,101.051 272.000 C 100.779 272.000,100.021 272.585,99.366 273.300 M103.213 275.420 C 103.229 275.918,104.001 276.854,105.000 277.588 C 105.604 278.032,105.556 277.884,104.806 276.988 C 104.259 276.335,103.674 275.629,103.506 275.420 C 103.313 275.180,103.205 275.180,103.213 275.420 M94.887 277.500 C 93.930 278.435,93.914 278.481,94.781 277.806 C 96.488 276.476,96.569 276.400,96.286 276.400 C 96.136 276.400,95.506 276.895,94.887 277.500 M137.549 278.300 C 137.050 278.936,137.065 278.949,137.708 278.445 C 138.314 277.969,138.514 277.975,139.108 278.489 C 139.488 278.819,140.236 279.429,140.770 279.844 C 144.101 282.439,144.152 283.098,141.120 284.358 C 138.142 285.595,136.000 284.810,136.000 282.479 C 136.000 282.142,135.886 281.981,135.746 282.121 C 135.315 282.552,136.430 284.728,137.411 285.371 C 138.260 285.927,138.528 285.905,140.471 285.126 C 144.584 283.476,144.779 282.501,141.507 279.945 C 140.568 279.211,139.562 278.384,139.271 278.106 C 138.562 277.427,138.201 277.468,137.549 278.300 M91.393 279.856 C 89.167 281.332,88.680 281.913,90.600 280.802 C 92.148 279.907,93.573 278.800,93.179 278.800 C 93.072 278.800,92.269 279.275,91.393 279.856 M109.840 280.717 C 110.521 281.093,111.665 282.075,112.381 282.900 C 113.464 284.148,113.928 284.393,115.141 284.357 L 116.600 284.314 114.910 283.936 C 113.728 283.671,113.026 283.229,112.575 282.466 C 111.929 281.372,109.943 279.985,109.068 280.017 C 108.810 280.026,109.158 280.341,109.840 280.717 M118.200 284.800 C 118.860 284.968,119.940 285.105,120.600 285.105 L 121.800 285.105 120.600 284.800 C 119.940 284.632,118.860 284.495,118.200 284.495 L 117.000 284.495 118.200 284.800 M122.500 285.076 C 122.885 285.176,123.515 285.176,123.900 285.076 C 124.285 284.975,123.970 284.893,123.200 284.893 C 122.430 284.893,122.115 284.975,122.500 285.076 M145.428 285.829 C 144.486 286.771,145.429 289.600,146.685 289.600 C 147.434 289.600,151.225 286.863,150.822 286.613 C 150.586 286.467,149.723 286.900,148.905 287.574 C 147.085 289.074,146.274 289.119,145.652 287.755 C 144.986 286.292,145.699 285.480,147.364 285.806 C 148.292 285.988,148.450 285.944,148.000 285.630 C 147.137 285.029,146.152 285.105,145.428 285.829 M142.000 291.995 C 141.147 292.171,142.553 292.279,145.600 292.270 C 148.350 292.262,150.150 292.126,149.600 291.968 C 148.326 291.601,143.827 291.617,142.000 291.995 " stroke="none" fill="#079acf" fill-rule="evenodd"></path><path id="path2" d="M81.709 31.442 C 81.865 31.598,81.817 31.938,81.603 32.197 C 81.335 32.520,81.393 32.667,81.789 32.667 C 82.106 32.667,82.282 32.532,82.180 32.367 C 82.078 32.203,82.212 31.996,82.477 31.908 C 82.761 31.813,82.644 31.626,82.192 31.452 C 81.770 31.290,81.552 31.286,81.709 31.442 M61.200 48.133 C 61.200 48.500,60.936 48.800,60.613 48.800 C 60.255 48.800,60.115 49.035,60.255 49.400 C 60.486 50.002,61.256 50.264,61.136 49.700 C 61.102 49.535,61.214 49.077,61.386 48.683 C 61.558 48.288,61.587 47.853,61.449 47.716 C 61.312 47.579,61.200 47.767,61.200 48.133 M178.102 78.786 C 176.647 79.136,175.511 79.932,175.800 80.400 C 176.144 80.957,174.985 81.570,172.371 82.211 C 164.329 84.185,164.457 86.092,172.677 86.758 C 177.154 87.121,179.692 87.884,180.800 89.202 C 180.910 89.333,182.027 89.920,183.283 90.507 C 184.806 91.219,185.771 91.970,186.183 92.767 C 186.522 93.423,187.034 94.104,187.320 94.280 C 188.278 94.870,189.480 96.985,189.774 98.600 C 189.934 99.480,190.300 101.460,190.586 103.000 C 192.061 110.923,192.373 112.985,192.766 117.400 C 194.085 132.220,194.400 223.464,193.221 249.400 C 192.718 260.480,191.783 271.310,191.243 272.319 C 190.995 272.783,190.689 274.296,190.563 275.682 C 190.437 277.067,190.184 278.650,190.000 279.200 C 189.816 279.750,189.559 280.685,189.430 281.278 C 189.301 281.871,188.477 283.187,187.598 284.202 C 186.719 285.218,186.000 286.173,186.000 286.324 C 185.999 286.777,184.138 288.800,183.723 288.800 C 183.512 288.800,182.924 289.242,182.417 289.782 L 181.495 290.764 182.349 292.582 C 183.356 294.722,183.263 294.697,185.073 293.317 C 188.812 290.465,194.271 293.540,192.652 297.586 C 191.986 299.251,192.104 299.476,194.295 300.700 C 196.121 301.721,274.797 301.394,277.004 300.356 L 278.800 299.512 278.800 297.030 C 278.800 293.312,278.301 293.134,266.800 292.763 C 257.557 292.464,254.832 291.978,252.849 290.274 C 252.492 289.967,251.273 289.306,250.140 288.805 C 248.952 288.279,247.901 287.502,247.658 286.968 C 247.426 286.459,246.581 285.317,245.780 284.430 C 243.864 282.310,241.547 273.783,240.800 266.100 C 240.117 259.075,240.291 191.767,240.994 191.063 C 242.342 189.715,257.803 189.585,260.361 190.900 C 261.143 191.302,262.608 191.600,263.800 191.600 C 264.942 191.600,266.466 191.894,267.185 192.253 C 268.611 192.964,270.368 193.468,273.273 194.000 C 275.340 194.379,276.687 194.991,277.600 195.967 C 277.930 196.320,278.920 197.135,279.800 197.778 C 281.790 199.231,283.391 200.923,284.752 203.007 C 285.328 203.890,286.266 205.240,286.836 206.007 C 287.904 207.443,288.352 208.502,289.200 211.600 C 289.915 214.213,290.279 215.236,291.944 219.319 C 292.195 219.934,292.400 221.230,292.400 222.199 C 292.400 226.172,293.812 229.717,295.651 230.358 C 301.779 232.494,301.869 232.069,302.780 196.600 C 303.338 174.905,303.451 170.957,303.964 155.400 C 304.444 140.830,304.278 139.219,302.104 137.351 C 299.714 135.298,296.000 136.701,296.000 139.657 C 296.000 139.888,295.645 140.575,295.211 141.184 C 294.777 141.794,293.888 144.341,293.234 146.846 C 291.485 153.549,290.620 156.000,290.003 156.000 C 289.856 156.000,289.313 157.265,288.796 158.811 C 288.280 160.358,287.295 162.293,286.607 163.111 C 285.919 163.930,284.922 165.230,284.391 166.000 C 283.217 167.704,282.563 168.399,282.129 168.404 C 281.854 168.408,277.944 171.162,276.600 172.298 C 276.197 172.639,273.589 173.484,268.800 174.826 C 267.370 175.226,265.379 175.564,264.375 175.577 C 263.371 175.590,261.805 175.960,260.894 176.400 C 257.611 177.986,243.123 177.454,241.250 175.679 C 240.562 175.027,240.865 120.293,241.586 115.000 C 241.825 113.240,242.200 109.910,242.418 107.600 C 243.465 96.501,243.711 95.599,245.921 94.749 C 246.515 94.520,247.720 93.955,248.600 93.492 C 249.480 93.029,250.920 92.518,251.800 92.356 C 252.680 92.193,254.120 91.829,255.000 91.546 C 256.176 91.168,261.196 90.998,273.925 90.907 L 291.251 90.783 293.258 91.792 C 294.975 92.654,295.806 92.800,298.996 92.800 C 302.227 92.800,302.993 92.938,304.719 93.834 C 306.024 94.511,307.591 94.932,309.256 95.053 C 311.977 95.251,314.800 95.945,314.800 96.415 C 314.800 96.863,318.752 98.683,321.346 99.429 C 322.783 99.842,324.115 100.546,324.784 101.246 C 325.385 101.875,326.514 102.655,327.293 102.981 C 328.072 103.306,329.405 104.254,330.255 105.086 C 331.106 105.919,332.319 106.868,332.952 107.195 C 333.584 107.522,334.962 108.602,336.014 109.595 C 337.065 110.588,338.617 112.041,339.463 112.825 C 341.803 114.995,345.021 118.555,347.041 121.212 C 348.040 122.525,348.991 123.600,349.155 123.600 C 349.319 123.600,349.876 124.365,350.392 125.300 C 350.909 126.235,351.888 127.561,352.566 128.247 C 354.021 129.718,354.800 130.955,354.800 131.795 C 354.800 132.128,354.980 132.400,355.200 132.400 C 355.420 132.400,355.600 132.642,355.600 132.938 C 355.600 133.809,356.919 134.754,359.017 135.385 C 363.591 136.762,364.010 132.906,360.751 119.400 C 360.114 116.760,359.409 112.530,359.185 110.000 C 358.677 104.284,358.244 101.513,357.497 99.200 C 356.029 94.656,356.053 94.796,354.835 83.789 C 354.495 80.719,354.003 79.480,352.911 78.947 C 352.026 78.515,179.892 78.357,178.102 78.786 M182.302 297.150 C 181.313 299.056,181.307 299.114,182.050 299.750 C 183.699 301.162,186.666 299.948,185.616 298.290 C 185.306 297.801,184.803 296.905,184.497 296.300 C 183.737 294.795,183.470 294.898,182.302 297.150 M346.826 342.969 C 346.500 343.362,346.489 343.608,346.790 343.794 C 347.027 343.940,347.194 343.911,347.163 343.730 C 347.022 342.921,347.245 342.651,347.600 343.200 C 347.833 343.561,347.990 343.610,347.994 343.324 C 348.004 342.563,347.332 342.359,346.826 342.969 M342.830 346.964 C 342.350 347.542,342.972 348.362,343.493 347.840 C 343.625 347.708,343.513 347.600,343.243 347.600 C 342.973 347.600,342.866 347.417,343.004 347.193 C 343.142 346.970,343.451 346.908,343.689 347.055 C 343.949 347.215,344.009 347.137,343.838 346.862 C 343.474 346.273,343.397 346.281,342.830 346.964 " stroke="none" fill="#f35535" fill-rule="evenodd"></path><path id="path3" d="M172.481 79.867 C 172.654 80.526,172.380 80.743,170.844 81.166 C 166.267 82.424,164.400 83.611,164.400 85.261 C 164.400 86.274,165.049 86.187,166.217 85.019 C 167.460 83.776,169.120 83.022,172.400 82.211 C 176.428 81.214,176.933 80.007,173.599 79.340 C 172.417 79.103,172.296 79.160,172.481 79.867 M141.269 191.316 C 140.593 192.132,140.102 195.025,139.801 199.979 C 139.525 204.517,139.510 204.570,138.142 205.938 C 137.382 206.698,136.513 207.912,136.211 208.636 C 135.908 209.360,135.174 210.368,134.578 210.876 C 133.353 211.922,132.400 213.890,132.400 215.375 C 132.400 216.278,131.207 218.891,130.410 219.732 C 129.968 220.199,126.382 218.915,125.300 217.903 C 124.433 217.092,124.400 216.802,124.400 210.107 C 124.400 202.359,123.985 199.871,122.536 198.921 C 120.345 197.486,119.200 200.576,119.200 207.923 C 119.200 213.492,118.889 214.158,115.658 215.500 L 113.678 216.323 112.939 215.462 C 111.547 213.839,111.200 212.420,111.200 208.363 C 111.200 204.331,110.434 202.400,108.835 202.400 C 108.614 202.400,107.677 201.680,106.752 200.800 C 105.827 199.920,104.964 199.192,104.835 199.183 C 104.706 199.173,103.835 199.017,102.899 198.836 C 99.578 198.194,99.496 198.435,99.153 209.913 C 98.990 215.351,98.844 220.171,98.828 220.625 C 98.738 223.250,93.795 224.315,91.781 222.142 C 90.848 221.135,90.800 220.836,90.796 216.042 C 90.789 208.378,90.684 208.031,87.646 205.604 C 86.961 205.057,86.400 204.365,86.400 204.066 C 86.400 203.103,85.096 201.281,84.072 200.814 L 83.076 200.361 83.318 205.169 C 83.451 207.813,83.749 210.330,83.980 210.762 C 84.264 211.294,84.400 223.119,84.400 247.436 C 84.400 282.178,84.423 283.303,85.131 282.662 C 85.534 282.298,86.389 281.996,87.031 281.991 C 88.943 281.977,94.698 278.045,98.434 274.200 C 101.103 271.453,101.451 271.468,103.081 274.408 C 104.360 276.714,105.999 278.420,107.782 279.300 C 108.562 279.685,109.809 280.299,110.552 280.665 C 111.296 281.031,112.199 281.829,112.559 282.438 C 113.474 283.987,117.240 284.698,125.897 284.956 L 130.395 285.090 131.852 286.752 C 132.653 287.666,133.889 288.690,134.599 289.026 C 135.309 289.363,136.091 290.083,136.339 290.625 C 137.070 292.231,138.372 292.588,141.568 292.060 C 144.940 291.503,147.759 291.472,149.503 291.972 C 151.185 292.455,151.795 291.491,151.414 288.954 C 151.103 286.879,151.097 286.878,148.840 288.407 C 146.440 290.033,145.650 289.848,145.067 287.525 C 144.534 285.400,145.858 284.835,148.876 285.900 C 152.925 287.329,152.796 288.743,152.795 243.200 C 152.794 200.695,152.736 198.702,151.503 199.158 C 148.089 200.421,144.814 198.031,144.214 193.838 C 143.827 191.137,142.419 189.932,141.269 191.316 M139.271 278.106 C 139.562 278.384,140.568 279.211,141.507 279.945 C 144.779 282.501,144.584 283.476,140.471 285.126 C 136.167 286.852,134.260 283.008,137.283 278.700 C 138.144 277.473,138.499 277.367,139.271 278.106 " stroke="none" fill="#26458c" fill-rule="evenodd"></path><path id="path4" d="M100.058 273.632 C 99.559 274.097,98.993 274.893,98.799 275.402 C 98.593 275.943,96.531 277.598,93.820 279.396 C 89.820 282.048,87.200 284.403,87.200 285.346 C 87.200 287.923,84.205 289.304,80.600 288.389 C 77.740 287.664,75.808 287.062,75.400 286.770 C 73.975 285.749,72.036 285.696,70.132 286.624 C 69.069 287.142,67.269 287.764,66.132 288.005 C 63.488 288.566,62.584 289.756,62.982 292.155 C 63.132 293.060,63.287 294.135,63.327 294.546 C 63.441 295.714,60.883 297.529,58.479 297.985 C 57.316 298.206,55.788 298.810,55.083 299.328 C 54.377 299.846,53.161 300.561,52.379 300.916 C 49.859 302.063,49.615 302.612,48.853 308.872 C 48.661 310.445,48.202 311.675,47.359 312.872 C 46.690 313.822,45.895 315.230,45.592 316.000 C 45.289 316.770,44.718 317.940,44.322 318.600 C 43.927 319.260,43.602 320.115,43.601 320.500 C 43.601 320.885,43.409 321.200,43.176 321.200 C 42.943 321.200,42.845 321.050,42.959 320.867 C 43.072 320.683,42.911 320.533,42.600 320.533 C 42.289 320.533,42.128 320.683,42.241 320.866 C 42.354 321.049,41.716 321.107,40.823 320.995 C 39.396 320.815,39.200 320.888,39.200 321.595 C 39.200 322.038,39.341 322.400,39.514 322.400 C 39.687 322.400,39.829 322.747,39.829 323.171 C 39.829 323.594,39.687 323.854,39.514 323.747 C 38.904 323.370,39.210 324.948,39.900 325.737 C 40.285 326.177,40.375 326.406,40.100 326.245 C 39.462 325.872,39.448 326.488,40.080 327.120 C 40.745 327.785,41.110 327.721,41.324 326.900 C 41.498 326.233,41.509 326.233,41.554 326.900 C 41.604 327.656,42.594 327.857,43.004 327.193 C 43.142 326.970,43.378 326.862,43.528 326.954 C 43.677 327.045,43.842 326.295,43.893 325.287 C 43.944 324.279,44.171 323.269,44.397 323.043 C 44.677 322.763,64.563 322.662,106.304 322.728 C 188.965 322.859,189.625 322.829,191.003 318.833 C 192.367 314.877,191.718 306.639,189.996 306.065 C 189.770 305.990,189.364 305.714,189.093 305.452 C 188.041 304.435,185.656 303.294,183.575 302.813 C 179.256 301.814,176.637 299.044,178.760 297.718 C 181.544 295.979,180.663 293.030,177.534 293.615 C 175.840 293.931,173.324 293.457,172.541 292.674 C 171.900 292.033,167.111 292.416,165.135 293.266 C 163.418 294.005,162.932 294.064,161.832 293.666 C 161.123 293.410,160.227 293.200,159.841 293.200 C 158.840 293.200,156.805 291.034,156.771 289.931 C 156.636 285.636,152.407 285.934,152.401 290.239 C 152.399 292.601,151.191 293.392,148.470 292.815 C 146.688 292.437,145.452 292.423,143.288 292.759 C 138.415 293.515,138.014 293.435,135.579 291.204 C 130.386 286.448,130.047 286.200,128.325 285.881 C 127.376 285.705,125.377 285.672,123.881 285.807 C 118.519 286.291,113.414 285.080,111.779 282.937 C 111.179 282.150,109.836 281.164,108.653 280.641 C 104.666 278.877,103.279 277.764,102.754 275.906 C 102.002 273.247,101.199 272.569,100.058 273.632 M63.648 274.143 C 61.380 276.875,62.635 280.000,66.000 280.000 C 69.349 280.000,70.896 276.438,68.561 274.104 C 67.879 273.422,64.222 273.451,63.648 274.143 M137.208 280.384 C 136.171 282.417,136.191 283.027,137.333 284.169 L 138.265 285.102 140.753 283.898 L 143.241 282.694 142.174 281.847 C 141.587 281.381,140.543 280.508,139.853 279.906 C 138.236 278.495,138.165 278.508,137.208 280.384 M162.800 286.400 C 162.800 287.147,162.907 287.253,163.280 286.880 C 163.653 286.507,163.653 286.293,163.280 285.920 C 162.907 285.547,162.800 285.653,162.800 286.400 M146.199 286.401 C 145.709 287.195,146.454 287.973,147.236 287.485 C 147.656 287.222,148.000 286.892,148.000 286.750 C 148.000 286.344,146.423 286.039,146.199 286.401 M187.118 294.563 C 186.526 294.996,186.528 295.109,187.151 295.935 L 187.829 296.834 188.721 295.884 L 189.613 294.934 188.688 294.513 C 188.019 294.208,187.585 294.222,187.118 294.563 M39.200 319.939 C 39.200 320.452,40.912 320.848,41.328 320.432 C 41.517 320.243,41.448 319.953,41.173 319.783 C 40.853 319.585,40.778 319.641,40.962 319.938 C 41.315 320.510,40.983 320.526,39.974 319.986 C 39.537 319.752,39.200 319.732,39.200 319.939 " stroke="none" fill="#e9f0f2" fill-rule="evenodd"></path></g></svg>